<svg width="21" height="24" viewBox="0 0 21 24" fill="none" xmlns="http://www.w3.org/2000/svg">
<path d="M13.7537 0.492188C14.0153 0.375 14.4481 0.215625 14.7098 0.145312C14.9714 0.0703125 15.2834 0.0046875 15.6156 0V0.548437C15.6156 0.914062 15.5803 1.2375 15.52 1.5C15.4696 1.72031 15.3539 2.06719 15.2683 2.27344C15.1878 2.47969 15.0067 2.81719 14.8758 3.02344C14.745 3.22969 14.5186 3.53906 14.3726 3.70312C14.2317 3.87188 13.9399 4.16719 13.7184 4.36406C13.5021 4.55625 13.1901 4.80469 13.024 4.90781C12.8579 5.01094 12.6114 5.14219 12.4705 5.20312C12.3346 5.25938 12.0729 5.34844 11.8918 5.39531C11.7106 5.44688 11.308 5.50313 10.4324 5.55469V5.22656C10.4324 5.04844 10.4576 4.72031 10.4878 4.5C10.518 4.27969 10.5985 3.93281 10.6689 3.72656C10.7394 3.52031 10.8803 3.19219 10.9809 3C11.0816 2.80781 11.2929 2.47969 11.4489 2.27344C11.61 2.06719 11.9018 1.74375 12.1031 1.55156C12.3044 1.36406 12.6516 1.09687 12.873 0.960938C13.0944 0.820312 13.492 0.614062 13.7537 0.492188Z" fill="black"/>
<path d="M13.4266 6.06094C13.6731 5.99531 14.0355 5.91094 14.2317 5.87813C14.428 5.85 14.8658 5.81719 15.213 5.81719C15.5753 5.8125 16.0332 5.84062 16.2949 5.88281C16.5415 5.925 16.9642 6.01875 17.2259 6.09375C17.4875 6.16875 17.8951 6.31875 18.1317 6.42656C18.3682 6.52969 18.7154 6.72188 18.9116 6.84375C19.1079 6.97031 19.4149 7.21406 19.6011 7.39219C19.7872 7.56562 19.9986 7.78594 20.069 7.875C20.1445 7.96406 20.225 8.07656 20.2502 8.12344C20.2854 8.18906 20.2301 8.24531 19.908 8.45156C19.6916 8.59219 19.3142 8.89219 19.0727 9.12188C18.8261 9.35156 18.5292 9.675 18.4084 9.84375C18.2877 10.0125 18.1115 10.3078 18.0159 10.5C17.9153 10.6922 17.7895 11.0203 17.7341 11.2266C17.6737 11.4328 17.6033 11.7937 17.5731 12.0234C17.5379 12.2719 17.5328 12.6562 17.553 12.9609C17.5681 13.2469 17.6083 13.5938 17.6335 13.7344C17.6637 13.875 17.7442 14.1703 17.8146 14.3906C17.88 14.6109 18.0411 14.9672 18.1568 15.1875C18.2776 15.4078 18.4889 15.7219 18.6248 15.8906C18.7607 16.0594 19.0375 16.3406 19.2438 16.5187C19.4501 16.6969 19.7721 16.9406 19.9684 17.0625C20.1647 17.1844 20.4716 17.3578 21 17.625L20.844 18.0328C20.7585 18.2625 20.5521 18.7219 20.3861 19.0547C20.22 19.3875 19.9432 19.8844 19.7772 20.1562C19.6061 20.4281 19.2589 20.9344 19.0073 21.2812C18.7506 21.6281 18.338 22.1437 18.0964 22.4297C17.8549 22.7109 17.4976 23.0625 17.3013 23.2125C17.1051 23.3625 16.8032 23.5547 16.622 23.6437C16.4408 23.7328 16.1087 23.85 15.8823 23.9016C15.6508 23.9578 15.374 24 15.2633 24C15.1526 24 14.8406 23.9578 14.5739 23.9109C14.3022 23.8641 13.7637 23.7141 13.3762 23.5781C12.9888 23.4422 12.4906 23.2828 12.2692 23.2219C12.0478 23.1609 11.6754 23.0859 11.4389 23.0578C11.2023 23.0344 10.8551 23.025 10.6589 23.0391C10.4676 23.0578 10.1255 23.1094 9.90404 23.1562C9.68263 23.2031 9.16431 23.3578 8.74664 23.4984C8.334 23.6391 7.85595 23.7938 7.68988 23.8359C7.52382 23.8828 7.33763 23.9344 7.27724 23.9578C7.21183 23.9813 6.96525 24 6.7237 24C6.37648 24 6.20539 23.9766 5.92862 23.8828C5.7374 23.8172 5.48579 23.7141 5.37508 23.6531C5.26437 23.5922 5.03792 23.4469 4.87186 23.3297C4.7058 23.2172 4.38877 22.9453 4.17239 22.7297C3.956 22.5141 3.60375 22.125 3.38737 21.8672C3.17602 21.6094 2.86402 21.2062 2.69796 20.9766C2.5319 20.7469 2.26016 20.3344 2.0941 20.0625C1.923 19.7906 1.67139 19.3406 1.52546 19.0547C1.38456 18.7687 1.17824 18.3375 1.07257 18.0938C0.96689 17.85 0.790763 17.3719 0.680055 17.0391C0.569347 16.7062 0.423414 16.1859 0.352963 15.8906C0.282513 15.5953 0.171805 15.0469 0.111419 14.6719C0.0158074 14.1187 -0.00432136 13.8047 0.000710825 12.9609C0.000710825 12.1078 0.0208396 11.8313 0.111419 11.3672C0.171805 11.0578 0.307674 10.5609 0.41335 10.2656C0.519025 9.97031 0.71528 9.525 0.846117 9.28125C0.976954 9.0375 1.21347 8.65781 1.36946 8.4375C1.52546 8.22188 1.83242 7.86094 2.05384 7.64531C2.27526 7.42969 2.62751 7.12969 2.83383 6.98906C3.04015 6.84375 3.41253 6.62813 3.66414 6.50625C3.91575 6.38906 4.24284 6.24375 4.3938 6.1875C4.54477 6.13125 4.84167 6.04219 5.04799 5.99531C5.2694 5.93906 5.68204 5.89219 6.05442 5.87344C6.51738 5.85469 6.80925 5.86875 7.1615 5.925C7.42318 5.96719 7.95659 6.10312 8.34407 6.22969C8.73154 6.35156 9.29515 6.54844 9.60211 6.66094C10.1104 6.84844 10.1909 6.8625 10.6085 6.8625C11.0463 6.8625 11.0916 6.84844 12.0176 6.52031C12.5409 6.33281 13.18 6.12656 13.4266 6.06094Z" fill="black"/>
</svg>
