<svg width="23" height="24" viewBox="0 0 23 24" fill="none" xmlns="http://www.w3.org/2000/svg">
<path fill-rule="evenodd" clip-rule="evenodd" d="M5.50619 0C5.89274 0 6.24629 0.0187496 6.29343 0.0421867C6.33586 0.0609363 6.39714 0.140622 6.43014 0.215621C6.45842 0.290619 6.52442 0.524989 6.57156 0.74061C6.6187 0.951543 6.66113 1.12498 6.67055 1.12498C6.67527 1.12498 6.85912 1.00779 7.08068 0.86717C7.32109 0.712486 7.53322 0.609363 7.61336 0.609363C7.71236 0.609363 7.84906 0.721861 8.24504 1.1156C8.64102 1.50934 8.75416 1.64528 8.75416 1.7484C8.75416 1.8234 8.65045 2.03433 8.49489 2.27339C8.35347 2.4937 8.24033 2.6812 8.24976 2.69057C8.25447 2.69995 8.42889 2.74213 8.63631 2.78432C8.84373 2.83119 9.07472 2.89213 9.15014 2.92025C9.22556 2.95307 9.3057 3.014 9.32456 3.06088C9.34813 3.10306 9.36699 3.21556 9.36699 3.46868H18.7715L18.9035 3.30462C18.9742 3.21556 19.1203 3.09369 19.2335 3.03744C19.4268 2.93432 19.4692 2.92963 20.8221 2.92963C22.1562 2.92963 22.2222 2.93432 22.4013 3.03275C22.505 3.08431 22.637 3.18275 22.6889 3.24369C22.7454 3.29993 22.8303 3.42649 22.8774 3.51555C22.9576 3.66086 22.967 3.82024 23 6.30456L22.8774 6.57643C22.7926 6.76393 22.6936 6.8858 22.5569 6.98424C22.4437 7.06392 22.2599 7.14829 22.142 7.17642C21.9723 7.21861 21.8733 7.21392 21.6612 7.15298C21.4679 7.10142 21.3359 7.02642 21.2134 6.90455C21.1191 6.80611 21.0107 6.65143 20.9117 6.39831L18.2388 9.06076C15.7639 11.5263 15.5518 11.7232 15.3774 11.7513C15.2737 11.7654 15.1228 11.7607 15.0474 11.7466C14.9484 11.7232 14.6231 11.4326 13.0675 9.89043L11.5826 11.3716C10.7671 12.1826 10.0128 12.8951 9.9091 12.9513C9.77711 13.0216 9.63097 13.0497 9.43298 13.0544C9.19728 13.0544 9.10771 13.031 8.91915 12.9138C8.74945 12.8107 8.65517 12.7076 8.55617 12.5154C8.45718 12.3279 8.42418 12.1919 8.42418 12.0232C8.42418 11.8966 8.4666 11.7045 8.51374 11.6013C8.57031 11.4841 8.94272 11.0763 9.48955 10.5373C10.0835 9.95136 10.4229 9.65137 10.5125 9.63731C10.6115 9.61387 10.6728 9.64199 10.7812 9.7498C10.8943 9.8623 10.9179 9.91855 10.8943 10.0217C10.8786 10.106 10.5816 10.4373 10.0034 11.0154C9.23499 11.7795 9.13128 11.9013 9.13128 12.0373C9.13128 12.1451 9.16428 12.2107 9.26328 12.281C9.33399 12.3373 9.43298 12.3748 9.48484 12.3748C9.54612 12.3748 10.1684 11.7888 11.1583 10.8092C12.582 9.39825 12.7564 9.23888 12.9261 9.21075C13.0298 9.192 13.1854 9.19669 13.2796 9.2295C13.3975 9.26231 13.7039 9.53418 15.236 11.0623L18.1634 8.15609C20.6665 5.67176 21.1097 5.2499 21.2275 5.2499C21.3029 5.24521 21.4161 5.28271 21.4774 5.32958C21.5764 5.40458 21.5905 5.46083 21.6188 5.87801C21.6471 6.30925 21.6565 6.34675 21.7743 6.4405C21.8922 6.53424 21.9111 6.53424 22.0478 6.46862C22.1515 6.42175 22.2128 6.34675 22.241 6.23425C22.2693 6.13581 22.2835 5.60145 22.274 4.93584C22.2599 3.91867 22.2505 3.79211 22.175 3.71711C22.0996 3.64211 21.9676 3.63274 20.8551 3.61868C19.719 3.60462 19.6106 3.6093 19.5069 3.68899C19.4362 3.74524 19.3938 3.82492 19.389 3.91867C19.3843 4.01242 19.422 4.10617 19.4786 4.1671C19.5587 4.24679 19.6389 4.26554 20.0113 4.27491C20.4214 4.28898 20.4591 4.29835 20.544 4.40616C20.5958 4.47179 20.6383 4.57491 20.6336 4.64053C20.6336 4.72959 20.0773 5.31083 18.1257 7.24673C16.7445 8.62014 15.566 9.76387 15.5094 9.79199C15.4481 9.82012 15.3255 9.84355 15.236 9.84355C15.1464 9.84355 15.0238 9.82012 14.9673 9.79199C14.906 9.76387 14.4582 9.342 13.0675 7.96859L12.4783 8.55452C11.9644 9.06544 11.8701 9.14044 11.7382 9.14044C11.6439 9.14044 11.5449 9.10294 11.4883 9.04669C11.4317 8.99045 11.394 8.89201 11.394 8.80295C11.394 8.66701 11.4742 8.56858 12.0634 7.98265C12.6432 7.41548 12.7658 7.31704 12.9261 7.28892C13.0345 7.27017 13.1854 7.27485 13.2796 7.30767C13.3975 7.34048 13.7039 7.61235 15.236 9.14044L16.8529 7.53735C17.7391 6.65143 18.4651 5.91551 18.4651 5.89676C18.4651 5.87332 16.2778 5.85926 13.6096 5.85926C9.75825 5.85926 8.75416 5.87332 8.75416 5.92019C8.75416 5.94832 8.52789 6.20144 8.24504 6.48268C7.82549 6.89986 7.71707 6.98424 7.59922 6.98424C7.50965 6.98424 7.31166 6.89049 7.05711 6.72643C6.83555 6.58581 6.6517 6.48737 6.64698 6.50612C6.64227 6.52487 6.59042 6.74049 6.53856 6.98424C6.48671 7.22798 6.40657 7.46704 6.35943 7.51391C6.28872 7.58422 6.18972 7.59829 5.53918 7.5936C4.82265 7.5936 4.78965 7.58891 4.70951 7.49048C4.66237 7.42954 4.58695 7.18111 4.53981 6.93736C4.49267 6.69362 4.44553 6.48737 4.4361 6.48268C4.42667 6.47331 4.24282 6.58581 4.03069 6.72643C3.75727 6.90924 3.59228 6.98424 3.48857 6.98424C3.35658 6.98424 3.2623 6.91861 2.88046 6.55299C2.63533 6.31394 2.40906 6.06082 2.31949 5.85926L0.716717 5.88269V16.3356L0.84871 16.5606C0.919421 16.6825 1.06556 16.8372 1.17398 16.9122C1.36725 17.034 1.38611 17.0387 3.0266 17.0715L3.11145 16.7715C3.15388 16.6075 3.26701 16.3497 3.36129 16.195C3.45086 16.0403 3.63942 15.8012 3.77142 15.6653C3.90812 15.5294 4.14383 15.3466 4.29939 15.2575C4.45495 15.1731 4.70008 15.0653 4.8415 15.0184C5.02064 14.9575 5.23748 14.9294 5.54861 14.9294C5.85974 14.9294 6.07658 14.9575 6.25572 15.0184C6.39714 15.0653 6.60927 15.1544 6.72712 15.2106C6.84497 15.2669 7.07596 15.4403 7.24095 15.5903C7.40594 15.745 7.60865 15.9841 7.6935 16.1247C7.77364 16.2653 7.86792 16.4481 7.8962 16.5231C7.92449 16.5981 7.97163 16.7528 8.04705 17.0622H14.543C20.6901 17.0622 21.0437 17.0575 21.2228 16.9778C21.3265 16.9309 21.4774 16.8184 21.5528 16.7247C21.6282 16.6309 21.7225 16.4762 21.7508 16.3778C21.7979 16.2372 21.8121 15.2528 21.8121 12.2716C21.8121 8.40452 21.8121 8.34358 21.9063 8.24984C21.9629 8.19359 22.0619 8.15609 22.1656 8.15609C22.2929 8.15609 22.3542 8.1889 22.4296 8.28265C22.5239 8.41389 22.5239 8.44202 22.4956 16.4762L22.3683 16.7434C22.2929 16.8934 22.142 17.1137 22.0289 17.2356C21.9016 17.3762 21.7084 17.5121 21.2228 17.7418L18.3378 17.7512C15.6131 17.7653 15.4481 17.77 15.4717 17.845C15.4811 17.8918 15.7781 19.0496 16.1316 20.4137C16.4852 21.7871 16.768 22.9917 16.768 23.1089C16.768 23.2448 16.7303 23.3808 16.6596 23.4933C16.603 23.587 16.504 23.7042 16.4381 23.7558C16.3721 23.8073 16.2353 23.8823 16.1316 23.9245C16.0279 23.9667 15.8394 23.9995 15.7074 23.9995C15.5424 23.9995 15.401 23.9573 15.2407 23.8683C15.0945 23.7886 14.972 23.6714 14.906 23.5542C14.84 23.437 14.5241 22.298 14.0857 20.5871C13.6945 19.0637 13.3739 17.8028 13.3739 17.7887C13.3739 17.7746 13.1099 17.7653 12.1954 17.7653V23.273L12.087 23.4839C12.0163 23.6198 11.8937 23.7511 11.7429 23.8495C11.5543 23.9761 11.4694 24.0042 11.2667 23.9995C11.0782 23.9995 10.9603 23.9667 10.7953 23.8636C10.6304 23.7652 10.5361 23.662 10.3098 23.2261V17.7653H9.74411C9.43298 17.7653 9.169 17.7793 9.15957 17.7981C9.15014 17.8215 8.82016 19.0918 8.42418 20.6246C7.91035 22.6261 7.67936 23.4652 7.59451 23.587C7.5238 23.6995 7.3918 23.812 7.24567 23.8823C7.08853 23.9605 6.9314 23.9995 6.77426 23.9995C6.62341 23.9995 6.45842 23.962 6.317 23.887C6.18972 23.8308 6.02002 23.6948 5.93988 23.5964C5.83617 23.4745 5.77489 23.3433 5.75603 23.2027C5.73246 23.0292 5.79846 22.7058 6.14258 21.3886C6.37357 20.5074 6.5527 19.7715 6.53856 19.7574C6.52442 19.7434 6.42071 19.7715 6.30286 19.8137C6.15672 19.8652 5.93516 19.8934 5.57218 19.8934C5.15263 19.898 4.99235 19.8793 4.74722 19.7949C4.57752 19.7387 4.29468 19.5887 4.11083 19.4621C3.93169 19.3356 3.69128 19.1199 3.58286 18.9793C3.47443 18.8387 3.33301 18.609 3.26701 18.4684C3.20102 18.3278 3.12559 18.1121 3.05017 17.7653L1.27769 17.7418L0.975989 17.5965C0.782714 17.5028 0.594152 17.3622 0.466873 17.2215C0.353736 17.095 0.221742 16.9075 0.169888 16.8044C0.122747 16.7012 0.0567508 16.4715 0.0331806 16.2887C0.000182302 16.0778 -0.00924579 13.931 0.00961039 4.80459L0.113319 4.54678C0.169888 4.40616 0.320737 4.17179 0.448016 4.03117C0.589438 3.8718 0.782713 3.7218 0.947705 3.64211C1.09384 3.5718 1.32483 3.50149 1.70667 3.44524L1.73024 3.24837C1.74438 3.14056 1.7868 3.01869 1.82452 2.98119C1.86223 2.94369 2.11207 2.86401 2.85689 2.69526L2.7579 2.5312C2.70133 2.44214 2.58348 2.25933 2.49863 2.13277C2.40906 2.00152 2.34306 1.83746 2.34306 1.75778C2.34306 1.64059 2.42791 1.53278 2.85689 1.11092C3.21045 0.764047 3.40372 0.609363 3.47915 0.609363C3.54043 0.604675 3.76199 0.717173 3.96941 0.848421C4.17682 0.979668 4.3701 1.09685 4.39367 1.11092C4.42196 1.12029 4.48324 0.923419 4.53509 0.670299C4.58695 0.421867 4.66709 0.168747 4.71423 0.10781C4.79908 0.0046874 4.82736 0 5.50619 0V0ZM5.17149 1.10154C5.13849 1.25622 5.08664 1.44372 5.05835 1.52341C5.02064 1.61716 4.92636 1.70153 4.78965 1.76715C4.67651 1.82809 4.50681 1.87496 4.41724 1.87496C4.29939 1.87496 4.15325 1.80934 3.8987 1.64059L3.54514 1.40622L3.13502 1.80465C3.50743 2.38589 3.61585 2.6062 3.61585 2.67182C3.61585 2.73745 3.564 2.89213 3.50272 3.02338C3.42729 3.17337 3.34244 3.2765 3.25287 3.314C3.18216 3.34681 3.01717 3.39368 2.88518 3.42181C2.7579 3.44993 2.60233 3.47806 2.54577 3.49212C2.44677 3.51555 2.43734 3.53899 2.45148 3.80617L2.46091 4.10148C3.08317 4.23273 3.30473 4.30773 3.35187 4.34991C3.39901 4.3921 3.47915 4.51397 3.52629 4.61709C3.57343 4.72022 3.61585 4.85615 3.61585 4.92178C3.61585 4.9874 3.51214 5.20771 3.38015 5.41395L3.13502 5.78895L3.54514 6.19675C4.12968 5.82176 4.33239 5.71864 4.3701 5.71864C4.40781 5.71864 4.52095 5.74207 4.61995 5.76551C4.71423 5.79363 4.85565 5.86863 4.93579 5.93894C5.04892 6.04675 5.09135 6.14519 5.15735 6.46862L5.2422 6.86705C5.80788 6.89049 5.83145 6.88111 5.85502 6.78268C5.86917 6.72643 5.91159 6.54362 5.94931 6.37487C5.98702 6.20613 6.05773 6.028 6.10487 5.98113C6.14729 5.93426 6.26986 5.85457 6.37357 5.8077C6.47728 5.76082 6.61399 5.71864 6.67998 5.71864C6.74598 5.72332 6.96754 5.82645 7.17496 5.95769L7.55208 6.19675L7.94806 5.78895C7.56151 5.20302 7.48608 5.03427 7.48137 4.93115C7.48137 4.85147 7.50965 4.71084 7.54737 4.62647C7.58036 4.54678 7.6605 4.4296 7.72179 4.37335C7.79721 4.30773 7.97634 4.2421 8.23562 4.18585L8.63631 4.10148C8.65988 3.56243 8.64574 3.51087 8.57974 3.4968C8.5326 3.48743 8.3299 3.44524 8.13191 3.40306C7.7925 3.33275 7.75478 3.314 7.64636 3.14994C7.58036 3.05619 7.51437 2.88275 7.50023 2.76557C7.47666 2.57339 7.4908 2.52651 7.71707 2.17964L7.9622 1.80465L7.55208 1.40622C6.82612 1.86559 6.77898 1.88434 6.5857 1.8609C6.46785 1.84215 6.29343 1.77653 6.19915 1.7109C6.03416 1.60309 6.0153 1.56559 5.94459 1.2281C5.90216 1.03123 5.85974 0.829671 5.85031 0.782797C5.83617 0.717173 5.7796 0.703111 5.54861 0.703111C5.36005 0.703111 5.25634 0.721861 5.2422 0.75936C5.23277 0.792172 5.19977 0.946856 5.17149 1.10154ZM1.03256 4.42022C0.971275 4.47647 0.886423 4.58428 0.843996 4.66397C0.806284 4.74366 0.759143 4.88428 0.745001 4.97802L0.716717 5.15615H2.72019C2.82861 4.97334 2.84746 4.9124 2.82861 4.90303C2.80504 4.89365 2.60233 4.84678 2.36663 4.7999C2.13564 4.75303 1.89523 4.67334 1.83866 4.63116C1.75852 4.57022 1.73024 4.49991 1.73024 4.35929C1.73024 4.18585 1.72081 4.17179 1.60296 4.17179C1.52753 4.17648 1.39554 4.20929 1.30597 4.24679C1.21641 4.28429 1.08913 4.36398 1.03256 4.42022ZM9.36699 4.33585C9.36699 4.44366 9.32927 4.53741 9.26328 4.60772C9.18314 4.68741 9.037 4.73897 8.70702 4.80459C8.46189 4.85147 8.24976 4.89365 8.23562 4.90303C8.22147 4.9124 8.24976 4.97334 8.2969 5.03896L8.37704 5.15615C19.2146 5.16083 19.2429 5.16083 19.3372 5.0624C19.389 5.01084 19.422 4.95928 19.4079 4.95459C19.3938 4.94521 19.2948 4.88428 19.1816 4.82334C19.0638 4.75772 18.9176 4.62178 18.8375 4.49991C18.7621 4.38272 18.7008 4.26085 18.7008 4.22804C18.7008 4.18585 17.7344 4.17179 14.0339 4.17179H9.36699V4.33585ZM4.62937 15.8622C4.52566 15.9231 4.34182 16.0825 4.21925 16.2137C4.09197 16.345 3.95055 16.5419 3.90341 16.6497C3.85156 16.7622 3.79027 16.9778 3.7667 17.1325C3.73842 17.3059 3.73842 17.5215 3.76199 17.695C3.78556 17.8496 3.85627 18.0793 3.92227 18.2106C3.98355 18.3371 4.15325 18.5574 4.29468 18.6887C4.44081 18.8246 4.68123 18.9934 4.83208 19.0637C5.06778 19.1809 5.15735 19.1949 5.54861 19.1949C5.93988 19.1949 6.03416 19.1762 6.26986 19.0637C6.416 18.9934 6.6517 18.834 6.7884 18.7074C6.94397 18.5621 7.08539 18.3746 7.17496 18.1824C7.30224 17.9106 7.31638 17.8356 7.31638 17.4137C7.31638 16.9825 7.30224 16.9168 7.17024 16.6403C7.07596 16.4528 6.92983 16.2512 6.7884 16.1247C6.66113 16.0075 6.45842 15.8669 6.33586 15.8059C6.21329 15.7497 6.02473 15.6841 5.91631 15.6559C5.80317 15.6325 5.62875 15.6138 5.52504 15.6138C5.42133 15.6138 5.21863 15.6466 5.07721 15.6841C4.93579 15.7216 4.73308 15.8012 4.62937 15.8622ZM7.90092 18.2809C7.85378 18.4215 7.73593 18.6559 7.64165 18.7965C7.4908 19.0262 7.41066 19.2793 6.94397 21.0886L6.42071 23.1183C6.60456 23.2589 6.70827 23.3011 6.77426 23.3011C6.84026 23.3011 6.92983 23.2636 6.97225 23.2167C7.01939 23.1652 7.30695 22.1199 7.71707 20.5308C8.08477 19.1012 8.39118 17.8918 8.40532 17.845C8.41946 17.7793 8.39118 17.7653 8.23562 17.7653C8.07063 17.7653 8.04705 17.7793 8.01877 17.8918C8.00463 17.9668 7.95277 18.1403 7.90092 18.2809ZM11.0169 20.4465C11.0122 23.1089 11.0169 23.1323 11.1112 23.2261C11.1913 23.3011 11.2337 23.3105 11.3375 23.273L11.4647 23.2261L11.4883 17.7653H11.0169V20.4465ZM14.7929 20.4793C15.1558 21.9136 15.4858 23.1323 15.5235 23.1886C15.5707 23.2636 15.6367 23.2964 15.7451 23.2964C15.8299 23.2964 15.9336 23.2589 15.9808 23.212C16.0232 23.1698 16.0609 23.0995 16.0609 23.0574C16.0609 23.0199 15.7592 21.8152 15.3915 20.3762L14.7174 17.7606C14.1706 17.7606 14.0905 17.7793 14.1046 17.8215C14.1187 17.8543 14.4252 19.0496 14.7929 20.4793ZM2.91818 8.76076H4.85565C6.71298 8.76076 6.80255 8.76545 6.91568 8.84982C7.03354 8.94357 7.03354 8.94357 7.03354 10.5982L6.77426 10.8232H4.91222C3.7667 10.8232 3.01246 10.8092 2.94646 10.7763C2.88518 10.7529 2.81447 10.6779 2.78147 10.6123C2.74376 10.5373 2.72019 10.2467 2.71547 9.75449C2.71076 9.05607 2.72019 9.00451 2.81447 8.88732L2.91818 8.76076ZM3.43201 10.1201L6.33114 10.0967L6.35471 9.46387H3.43201V10.1201ZM4.32767 11.4326C5.55804 11.4279 5.62875 11.4326 5.75132 11.5263C5.85031 11.5966 5.88331 11.6576 5.88331 11.7841C5.88331 11.8873 5.8456 11.981 5.78903 12.0419C5.69946 12.131 5.62875 12.1357 2.9606 12.1357L2.84275 12.0185C2.77675 11.9529 2.7249 11.8685 2.7249 11.831C2.7249 11.7935 2.74847 11.7091 2.78147 11.6435C2.81447 11.5779 2.88518 11.5076 2.93703 11.4841C2.98889 11.456 3.61114 11.4373 4.32767 11.4326ZM15.9195 13.1669H18.0078C20.0349 13.1622 20.0961 13.1669 20.2234 13.2607C20.3177 13.331 20.3554 13.3919 20.3507 13.5044C20.3507 13.5982 20.313 13.7013 20.1433 13.87H15.9242L15.8064 13.7528C15.7404 13.6872 15.6885 13.5841 15.6885 13.5138C15.6885 13.4482 15.7404 13.345 15.8064 13.2794L15.9195 13.1669ZM13.1854 14.7138H16.6408C20.0396 14.7138 20.0961 14.7138 20.2234 14.8075C20.3224 14.8825 20.3554 14.9434 20.3554 15.0653C20.3554 15.1919 20.3224 15.2528 20.2234 15.3278C20.0961 15.4216 20.0396 15.4216 13.1901 15.4169L13.0722 15.2997C13.0062 15.2341 12.9544 15.1309 12.9544 15.0653C12.9544 14.9997 13.0062 14.8919 13.0722 14.831L13.1854 14.7138ZM5.7136 2.32964C5.81731 2.33902 6.02944 2.40464 6.18029 2.47495C6.34528 2.54526 6.52913 2.67651 6.62813 2.78432C6.71769 2.88744 6.84497 3.089 6.91097 3.22962C6.99111 3.40774 7.02882 3.5718 7.02882 3.76867C7.02882 3.92336 6.99582 4.15304 6.9534 4.28429C6.90626 4.42491 6.78369 4.61709 6.64698 4.76709C6.51028 4.92178 6.32171 5.06709 6.16144 5.14208C5.95402 5.24052 5.83617 5.26864 5.54861 5.26864C5.26577 5.26864 5.14792 5.24521 4.93579 5.14677C4.79436 5.07646 4.59637 4.94053 4.49738 4.84209C4.39367 4.73897 4.25696 4.5421 4.19097 4.40147C4.09197 4.19523 4.0684 4.07336 4.0684 3.79211C4.0684 3.54368 4.09669 3.37962 4.16268 3.22962C4.21454 3.11244 4.35124 2.91557 4.4691 2.79369C4.58223 2.66713 4.76137 2.52651 4.86508 2.47495C4.96878 2.42339 5.16206 2.36714 5.28934 2.34839C5.42133 2.32495 5.60989 2.32027 5.7136 2.32964ZM5.07721 3.16869C5.01592 3.22025 4.91222 3.36087 4.85093 3.48743C4.75665 3.67961 4.74251 3.7593 4.77079 3.93273C4.79908 4.09211 4.85565 4.19054 5.00178 4.33585C5.13849 4.47179 5.25634 4.5421 5.38362 4.56553C5.50147 4.58897 5.64761 4.5796 5.76074 4.5421C5.86445 4.50928 6.02002 4.41554 6.10015 4.33585C6.18029 4.25616 6.26986 4.10148 6.29814 3.98898C6.32643 3.88117 6.34057 3.73586 6.32171 3.66086C6.30757 3.59055 6.26515 3.47806 6.22743 3.40306C6.19444 3.33275 6.08601 3.22494 5.98702 3.164C5.88802 3.10306 5.7466 3.04213 5.66646 3.03275C5.59104 3.01869 5.45433 3.02338 5.36005 3.04681C5.27048 3.06556 5.1432 3.12181 5.07721 3.16869ZM5.51561 16.5887C5.57218 16.584 5.6806 16.6262 5.87859 16.7762V17.409C5.87859 17.9809 5.86917 18.0512 5.78431 18.1356C5.73246 18.1871 5.63346 18.2293 5.56275 18.2293C5.49204 18.234 5.37891 18.1918 5.31291 18.1403C5.20449 18.0559 5.19506 18.0231 5.18092 17.5168C5.17149 17.2262 5.18092 16.9403 5.19506 16.8794C5.2092 16.8231 5.26105 16.734 5.31291 16.6825C5.36476 16.6309 5.45904 16.5887 5.51561 16.5887Z" fill="white"/>
</svg>
