<svg width="18" height="18" viewBox="0 0 18 18" fill="none" xmlns="http://www.w3.org/2000/svg">
<path d="M17.25 2.76923H13.5V2.07692C13.5 1.52609 13.2629 0.997815 12.841 0.608317C12.419 0.218818 11.8467 0 11.25 0H6.75C6.15326 0 5.58097 0.218818 5.15901 0.608317C4.73705 0.997815 4.5 1.52609 4.5 2.07692V2.76923H0.75C0.551088 2.76923 0.360322 2.84217 0.21967 2.972C0.0790178 3.10184 0 3.27793 0 3.46154C0 3.64515 0.0790178 3.82124 0.21967 3.95107C0.360322 4.08091 0.551088 4.15385 0.75 4.15385H1.5V16.6154C1.5 16.9826 1.65804 17.3348 1.93934 17.5945C2.22064 17.8541 2.60218 18 3 18H15C15.3978 18 15.7794 17.8541 16.0607 17.5945C16.342 17.3348 16.5 16.9826 16.5 16.6154V4.15385H17.25C17.4489 4.15385 17.6397 4.08091 17.7803 3.95107C17.921 3.82124 18 3.64515 18 3.46154C18 3.27793 17.921 3.10184 17.7803 2.972C17.6397 2.84217 17.4489 2.76923 17.25 2.76923ZM6 2.07692C6 1.89331 6.07902 1.71722 6.21967 1.58739C6.36032 1.45755 6.55109 1.38462 6.75 1.38462H11.25C11.4489 1.38462 11.6397 1.45755 11.7803 1.58739C11.921 1.71722 12 1.89331 12 2.07692V2.76923H6V2.07692ZM15 16.6154H3V4.15385H15V16.6154ZM7.5 7.61539V13.1538C7.5 13.3375 7.42098 13.5135 7.28033 13.6434C7.13968 13.7732 6.94891 13.8462 6.75 13.8462C6.55109 13.8462 6.36032 13.7732 6.21967 13.6434C6.07902 13.5135 6 13.3375 6 13.1538V7.61539C6 7.43177 6.07902 7.25568 6.21967 7.12585C6.36032 6.99602 6.55109 6.92308 6.75 6.92308C6.94891 6.92308 7.13968 6.99602 7.28033 7.12585C7.42098 7.25568 7.5 7.43177 7.5 7.61539ZM12 7.61539V13.1538C12 13.3375 11.921 13.5135 11.7803 13.6434C11.6397 13.7732 11.4489 13.8462 11.25 13.8462C11.0511 13.8462 10.8603 13.7732 10.7197 13.6434C10.579 13.5135 10.5 13.3375 10.5 13.1538V7.61539C10.5 7.43177 10.579 7.25568 10.7197 7.12585C10.8603 6.99602 11.0511 6.92308 11.25 6.92308C11.4489 6.92308 11.6397 6.99602 11.7803 7.12585C11.921 7.25568 12 7.43177 12 7.61539Z" fill="white"/>
</svg>
