<svg width="24" height="24" viewBox="0 0 24 24" fill="none" xmlns="http://www.w3.org/2000/svg">
<path d="M6.46103 1.29669C7.28803 0.883903 8.43456 0.433589 8.99843 0.283485C9.56229 0.13338 10.878 0.00203855 11.9117 0.00203855C13.0395 -0.0167245 14.2424 0.0958539 14.919 0.264721C15.5393 0.433589 16.4603 0.752561 16.9865 0.996481C17.494 1.22164 18.321 1.69071 18.8097 2.00969C19.3172 2.34742 19.6931 2.68516 19.6555 2.77897C19.6367 2.85402 18.8661 3.54826 17.9263 4.29878C16.9865 5.06807 16.1407 5.74354 16.0468 5.83735C15.934 5.9124 15.4453 5.79983 14.919 5.59343C14.3927 5.36828 13.5094 5.12436 12.9455 5.03054C12.3628 4.95549 11.4606 4.95549 10.878 5.0493C10.3141 5.16188 9.41193 5.44333 8.90445 5.68725C8.37817 5.93117 7.58876 6.51282 7.11887 6.9819C6.64898 7.43221 6.06632 8.2015 5.80319 8.68934C5.54005 9.15841 5.27691 9.55244 5.18293 9.55244C5.10775 9.55244 4.26195 8.9145 3.32218 8.10768C2.3636 7.31963 1.49901 6.60664 1.38624 6.53159C1.27346 6.43777 1.48021 5.96869 1.93131 5.29322C2.34481 4.69281 3.19061 3.71713 3.81086 3.11671C4.50629 2.46 5.54005 1.747 6.46103 1.29669Z" fill="#F14336"/>
<path d="M0.12687 9.64626C0.239643 9.12089 0.521576 8.22027 0.747123 7.61985C1.02906 6.86933 1.2546 6.55035 1.42376 6.62541C1.55533 6.68169 2.47631 7.39469 5.23926 9.64626L5.10769 10.4906C5.0325 10.9597 4.97612 11.804 4.99491 12.3669C5.01371 12.9298 5.12648 13.6428 5.23926 13.9618C5.40842 14.4496 5.38962 14.5622 5.01371 14.8061C4.76937 14.9562 3.88598 15.6692 3.02138 16.401C2.00642 17.2453 1.38617 17.6393 1.2734 17.5267C1.17942 17.4142 0.878691 16.7387 0.615554 16.0257C0.220848 14.9937 0.0892788 14.262 0.0140967 12.6483C-0.0234944 11.5038 0.0140967 10.1529 0.12687 9.64626Z" fill="#FBBB00"/>
<path d="M12.1936 14.6185V12.1793V9.74007L23.9408 9.83388L23.9972 11.804C24.016 13.1174 23.9408 14.1494 23.7529 14.8999C23.5837 15.5191 23.2266 16.5323 22.9259 17.1515C22.6439 17.7707 22.0237 18.7839 21.5538 19.403C21.1027 20.0222 20.4636 20.7165 19.5239 21.3732L17.5315 19.7408C15.7272 18.2397 15.5768 18.0709 15.8963 17.8457C16.0843 17.7144 16.573 17.2828 16.9865 16.8888C17.4 16.476 17.9262 15.8005 18.5841 14.6185H12.1936Z" fill="#518EF8"/>
<path d="M1.34863 17.7144L3.24698 16.1758C4.29953 15.3315 5.20172 14.6185 5.2957 14.6185C5.37088 14.6185 5.67161 15.0688 5.97233 15.6129C6.25427 16.1383 6.83693 16.87 7.23164 17.2265C7.62634 17.583 8.50973 18.1272 9.18637 18.4461C10.2577 18.934 10.6148 19.009 12.0057 19.009C13.2838 19.009 13.7913 18.9152 15.5769 18.0896L17.494 19.6657C18.5653 20.5476 19.4675 21.2794 19.5239 21.2981C19.5803 21.3356 19.4111 21.5233 19.148 21.7297C18.8849 21.9361 18.0767 22.4051 17.3624 22.7616C16.6482 23.1181 15.5393 23.5497 14.919 23.6998C14.28 23.8687 13.0019 24 12.0057 24C11.0095 24 9.73144 23.8687 9.09239 23.6998C8.47214 23.5497 7.34441 23.0994 6.57379 22.7241C5.76558 22.3113 4.65665 21.542 3.94242 20.8853C3.26578 20.2662 2.40118 19.2905 1.34863 17.7144Z" fill="#28B446"/>
</svg>
