<svg id="Layer_1" data-name="Layer 1" xmlns="http://www.w3.org/2000/svg" viewBox="0 0 512 512"><defs><style>.cls-1{fill:#FFFFFF;}</style></defs><title>coupon-outline</title><path class="cls-1" d="M435.2,64H76.8A76.88,76.88,0,0,0,0,140.8V371.2A76.88,76.88,0,0,0,76.8,448H435.2A76.88,76.88,0,0,0,512,371.2V140.8A76.88,76.88,0,0,0,435.2,64Zm51.2,307.2a51.26,51.26,0,0,1-51.2,51.2H153.6V396.8a12.8,12.8,0,1,0-25.6,0v25.6H76.8a51.26,51.26,0,0,1-51.2-51.2V140.8A51.26,51.26,0,0,1,76.8,89.6H128v25.6a12.8,12.8,0,1,0,25.6,0V89.6H435.2a51.26,51.26,0,0,1,51.2,51.2Z"/><path class="cls-1" d="M393.05,182.95a12.8,12.8,0,0,0-18.1,0l-128,128a12.8,12.8,0,1,0,18.1,18.1l128-128A12.8,12.8,0,0,0,393.05,182.95Z"/><path class="cls-1" d="M307.2,204.8a38.4,38.4,0,1,0-38.4,38.4A38.44,38.44,0,0,0,307.2,204.8Zm-51.2,0a12.8,12.8,0,1,1,12.8,12.8A12.82,12.82,0,0,1,256,204.8Z"/><path class="cls-1" d="M371.2,268.8a38.4,38.4,0,1,0,38.4,38.4A38.44,38.44,0,0,0,371.2,268.8Zm0,51.2A12.8,12.8,0,1,1,384,307.2,12.82,12.82,0,0,1,371.2,320Z"/><path class="cls-1" d="M140.8,153.6A12.8,12.8,0,0,0,128,166.4V192a12.8,12.8,0,1,0,25.6,0V166.4A12.8,12.8,0,0,0,140.8,153.6Z"/><path class="cls-1" d="M140.8,230.4A12.8,12.8,0,0,0,128,243.2v25.6a12.8,12.8,0,0,0,25.6,0V243.2A12.8,12.8,0,0,0,140.8,230.4Z"/><path class="cls-1" d="M140.8,307.2A12.8,12.8,0,0,0,128,320v25.6a12.8,12.8,0,0,0,25.6,0V320A12.8,12.8,0,0,0,140.8,307.2Z"/></svg>