<svg width="23" height="19" viewBox="0 0 23 19" fill="none" xmlns="http://www.w3.org/2000/svg">
<path fill-rule="evenodd" clip-rule="evenodd" d="M13.1492 0.00160762C19.4114 -0.00314317 19.6439 -0.00314317 19.8327 0.0871218C19.9393 0.13463 20.1136 0.267652 20.2202 0.386421C20.3267 0.505191 20.443 0.68097 20.472 0.785487C20.5205 0.928011 20.535 2.14896 20.535 11.0662L20.719 11.0139C20.8159 10.9854 21.0629 10.9664 21.2615 10.9807C21.5424 10.9949 21.6974 11.0329 21.9395 11.147C22.1381 11.242 22.3318 11.3797 22.4674 11.5223C22.5788 11.6505 22.7193 11.8358 22.7677 11.9308C22.8161 12.0306 22.8936 12.2111 22.9372 12.3346C22.9905 12.4867 23.0099 12.6577 22.9953 12.8477C22.9808 13.0045 22.9275 13.2515 22.8694 13.3941C22.8113 13.5508 22.666 13.7694 22.511 13.9357C22.2543 14.216 22.2301 14.2302 18.8883 15.8645C16.1374 17.209 15.4061 17.5463 14.8927 17.7125C14.5489 17.8218 14.0016 17.9643 13.6819 18.0261C13.3623 18.0879 12.8731 18.1639 12.5922 18.1924C12.2774 18.2209 10.5 18.2399 3.80188 18.2351L3.74376 18.3681C3.70986 18.4394 3.613 18.5677 3.52582 18.6532C3.43864 18.734 3.28366 18.848 3.18196 18.9002C3.01729 18.9952 2.93011 19 1.93726 19C0.925044 19 0.862083 18.9953 0.673199 18.8907C0.561807 18.8337 0.392296 18.7007 0.295433 18.5914C0.19857 18.4869 0.0920201 18.3159 0.0629611 18.2114C0.0145295 18.0736 0 17.1519 0 14.4392C0 11.7883 0.0145295 10.8049 0.0581179 10.6624C0.0968632 10.5484 0.213099 10.3773 0.363237 10.2348C0.508532 10.0875 0.682886 9.97351 0.799122 9.9355C0.920201 9.90225 1.34156 9.87849 1.93726 9.87849C2.55235 9.87849 2.94949 9.90225 3.07056 9.94025C3.17227 9.96876 3.34662 10.0733 3.45317 10.1635C3.55972 10.2538 3.68565 10.4058 3.72923 10.4961C3.77767 10.5864 3.8261 10.7336 3.84547 10.8144C3.86 10.8999 3.88906 10.9712 3.90843 10.9712C3.93265 10.9712 4.36853 10.8904 5.81179 10.6149V5.79282C5.81179 2.10146 5.82632 0.928011 5.87475 0.785487C5.90381 0.68097 6.02005 0.505191 6.1266 0.391172C6.23315 0.281904 6.39782 0.148882 6.48984 0.0966233C6.6545 0.00635841 6.79011 0.00160762 13.1492 0.00160762ZM6.59154 0.989771L6.5867 3.79749H10.4612V0.756983H6.82401L6.59154 0.989771ZM11.2361 6.36291C11.4347 6.55294 11.5364 6.60045 11.6236 6.60045C11.7253 6.60045 11.8657 6.52444 12.0837 6.36291C12.258 6.22989 12.5389 6.0161 12.7133 5.88783C12.9312 5.72155 13.0765 5.65029 13.1734 5.65029C13.2799 5.65029 13.4398 5.74056 13.7449 5.9686C13.9774 6.14437 14.2583 6.35816 14.3745 6.44367C14.5004 6.54344 14.6312 6.60045 14.7281 6.60045C14.8201 6.60045 14.9169 6.55769 14.9944 6.48168L15.1107 6.36291V0.756983H11.2361V6.36291ZM15.8856 3.79749H19.7601V0.994522L19.5179 0.756983H15.8856V3.79749ZM6.5867 7.5031C6.5867 9.82623 6.60123 10.4486 6.64966 10.4486C6.68356 10.4486 6.88213 10.4058 7.09523 10.3488C7.30833 10.2966 7.64735 10.1968 7.84592 10.1303C8.04449 10.0638 8.74191 9.77397 9.39573 9.48418C10.2239 9.11837 10.6792 8.94734 10.8971 8.91408C11.1296 8.87608 11.2991 8.87608 11.5413 8.91883C11.7205 8.94734 11.982 9.0281 12.1224 9.08986C12.2629 9.15637 12.4711 9.28939 12.5922 9.39391C12.7133 9.49368 12.8877 9.69321 12.9797 9.83573C13.0717 9.97826 13.1879 10.2158 13.2315 10.3631C13.2799 10.5151 13.3187 10.7859 13.3187 10.9712C13.3187 11.1565 13.2799 11.4225 13.2315 11.5745C13.1879 11.7265 13.0717 11.9641 12.9797 12.1066C12.8877 12.2491 12.7133 12.4487 12.5922 12.5484C12.4711 12.653 12.1224 12.8572 11.8173 13.0045L11.2604 13.2753L14.6506 13.2991L19.7359 11.356L19.7601 4.55761H15.8856C15.8904 6.18238 15.871 6.43417 15.8129 6.60045C15.7693 6.71922 15.687 6.87599 15.624 6.95676C15.5659 7.03277 15.3964 7.15629 15.256 7.2323C15.0719 7.32257 14.9169 7.36058 14.7474 7.36058C14.6167 7.36058 14.4278 7.33682 14.3358 7.30357C14.2437 7.27031 13.9435 7.08028 13.6722 6.876L13.1734 6.50543C12.4033 7.08028 12.0934 7.27506 11.9868 7.30832C11.8803 7.34632 11.672 7.36533 11.5267 7.35582C11.333 7.34157 11.1877 7.29406 11.0182 7.18955C10.8681 7.09928 10.7228 6.96151 10.6307 6.81423L10.4854 6.5862L10.4612 4.55761H6.5867V7.5031ZM9.58946 10.2348C9.01797 10.4866 8.28665 10.7859 7.967 10.8904C7.5747 11.0187 6.81917 11.1945 5.64228 11.4225L3.89874 11.7598L3.87453 17.4797C10.4661 17.4797 12.2338 17.4607 12.5438 17.4322C12.8247 17.4037 13.2703 17.3372 13.5366 17.285C13.803 17.2327 14.3067 17.0949 14.6506 16.9809C15.1446 16.8194 15.9776 16.4346 18.5493 15.1756C20.3461 14.2967 21.8475 13.5508 21.8862 13.5223C21.9201 13.4891 22.0073 13.3703 22.0751 13.2515C22.172 13.09 22.2011 12.9713 22.2011 12.7765C22.1962 12.6102 22.1623 12.4487 22.0993 12.3251C22.0412 12.2206 21.9347 12.0781 21.862 12.0068C21.7845 11.9356 21.6392 11.8453 21.5424 11.8026C21.4407 11.7646 21.2566 11.7313 21.1307 11.7313C20.9418 11.7265 20.3364 11.9451 17.8955 12.8762L14.8927 14.0259C13.7304 14.0877 12.631 14.1019 11.6962 14.1019H10.0011C8.31086 14.6578 7.77327 14.8193 7.71516 14.8193C7.65219 14.8193 7.55049 14.7671 7.48268 14.7005C7.41488 14.6293 7.36161 14.5248 7.36161 14.4487C7.36161 14.3775 7.39066 14.2777 7.42941 14.2255C7.46815 14.1685 8.43679 13.7029 9.68632 13.1328C11.3621 12.3727 11.9335 12.0876 12.1031 11.9403C12.2387 11.8216 12.3694 11.6458 12.4421 11.489C12.5389 11.2752 12.5535 11.1755 12.5341 10.8999C12.5196 10.7004 12.4711 10.4913 12.413 10.3773C12.3597 10.2728 12.2096 10.097 12.0788 9.98301C11.9335 9.85474 11.7495 9.75022 11.5994 9.70746C11.4686 9.66946 11.2797 9.64095 11.1877 9.64095C11.0957 9.6457 10.931 9.67421 10.8245 9.70746C10.7179 9.74072 10.161 9.97826 9.58946 10.2348ZM0.779749 10.8714L0.774906 18.0023C1.01706 18.2399 1.02191 18.2399 1.94211 18.2399C2.86231 18.2399 2.86231 18.2399 2.98339 18.1211L3.09962 18.0023V10.8762C2.85747 10.6386 2.85747 10.6386 1.93726 10.6386C1.02191 10.6386 1.01222 10.6386 0.895985 10.7526L0.779749 10.8714Z" fill="white"/>
</svg>
