<svg width="23" height="23" viewBox="0 0 23 23" fill="none" xmlns="http://www.w3.org/2000/svg">
<path fill-rule="evenodd" clip-rule="evenodd" d="M8.30556 15.3333C8.30556 15.3333 7.34914 13.9903 7.02778 14.0638C3.57522 14.8497 0 17.119 0 19.5308V23H23V19.5308C23 17.119 19.4248 14.8497 15.9722 14.0638C15.6509 13.9903 14.6944 15.3333 14.6944 15.3333H8.30556ZM12.5765 16.6111H7.6475L7.26544 16.0744L7.25906 16.0661L7.2335 16.031C7.08609 15.8303 6.93115 15.6353 6.76903 15.4464C5.37305 15.8316 4.00647 16.4654 2.97275 17.2199C1.74417 18.1157 1.27778 18.9539 1.27778 19.5308V21.7222H21.7222V19.5308C21.7222 18.9539 21.2558 18.1157 20.0279 17.2199C18.9942 16.466 17.6276 15.8316 16.2316 15.4464L16.1837 15.5013C16.0383 15.6724 15.8993 15.8488 15.7671 16.0303L15.7416 16.0661L15.7352 16.0738L15.3531 16.6111H12.5765Z" fill="white"/>
<path fill-rule="evenodd" clip-rule="evenodd" d="M16.6113 20.4444V16.6111H17.8891V20.4444H16.6113Z" fill="white"/>
<path fill-rule="evenodd" clip-rule="evenodd" d="M19.1669 19.1667H15.3336V17.8889H19.1669V19.1667ZM11.5002 11.5C12.8558 11.5 14.1558 10.9615 15.1143 10.003C16.0728 9.04447 16.6113 7.74444 16.6113 6.38889C16.6113 5.03334 16.0728 3.73331 15.1143 2.77479C14.1558 1.81627 12.8558 1.27778 11.5002 1.27778C10.1447 1.27778 8.84463 1.81627 7.88612 2.77479C6.9276 3.73331 6.38911 5.03334 6.38911 6.38889C6.38911 7.74444 6.9276 9.04447 7.88612 10.003C8.84463 10.9615 10.1447 11.5 11.5002 11.5ZM11.5002 12.7778C15.0288 12.7778 17.8891 9.91747 17.8891 6.38889C17.8891 2.86031 15.0288 0 11.5002 0C7.97163 0 5.11133 2.86031 5.11133 6.38889C5.11133 9.91747 7.97163 12.7778 11.5002 12.7778Z" fill="white"/>
</svg>
